<mxfile host="app.diagrams.net" agent="Mozilla/5.0 (Macintosh; Intel Mac OS X 10_15_7) AppleWebKit/537.36 (KHTML, like Gecko) Chrome/133.0.0.0 Safari/537.36" version="24.7.6">
  <diagram name="페이지-1" id="ZcVo0MFy7XyKr1dF5Nqs">
    <mxGraphModel dx="2097" dy="804" grid="1" gridSize="10" guides="1" tooltips="1" connect="1" arrows="1" fold="1" page="1" pageScale="1" pageWidth="827" pageHeight="1169" math="0" shadow="0">
      <root>
        <mxCell id="0" />
        <mxCell id="1" parent="0" />
        <mxCell id="dEM4wBrxNQ7cr_cTuQZF-23" style="edgeStyle=orthogonalEdgeStyle;rounded=0;orthogonalLoop=1;jettySize=auto;html=1;entryX=0;entryY=0.5;entryDx=0;entryDy=0;" edge="1" parent="1" source="dEM4wBrxNQ7cr_cTuQZF-2" target="dEM4wBrxNQ7cr_cTuQZF-18">
          <mxGeometry relative="1" as="geometry" />
        </mxCell>
        <mxCell id="dEM4wBrxNQ7cr_cTuQZF-2" value="" style="rounded=1;whiteSpace=wrap;html=1;" vertex="1" parent="1">
          <mxGeometry x="240" y="120" width="460" height="330" as="geometry" />
        </mxCell>
        <mxCell id="dEM4wBrxNQ7cr_cTuQZF-5" value="EC2" style="rounded=0;whiteSpace=wrap;html=1;" vertex="1" parent="1">
          <mxGeometry x="290" y="100" width="80" height="40" as="geometry" />
        </mxCell>
        <mxCell id="dEM4wBrxNQ7cr_cTuQZF-8" value="" style="rounded=1;whiteSpace=wrap;html=1;" vertex="1" parent="1">
          <mxGeometry x="300" y="180" width="350" height="250" as="geometry" />
        </mxCell>
        <mxCell id="dEM4wBrxNQ7cr_cTuQZF-9" value="Nginx" style="rounded=0;whiteSpace=wrap;html=1;" vertex="1" parent="1">
          <mxGeometry x="334" y="160" width="80" height="40" as="geometry" />
        </mxCell>
        <mxCell id="dEM4wBrxNQ7cr_cTuQZF-10" value="PM2" style="rounded=0;whiteSpace=wrap;html=1;" vertex="1" parent="1">
          <mxGeometry x="450" y="200" width="80" height="40" as="geometry" />
        </mxCell>
        <mxCell id="dEM4wBrxNQ7cr_cTuQZF-11" value="NestJS" style="rounded=1;whiteSpace=wrap;html=1;" vertex="1" parent="1">
          <mxGeometry x="370" y="250" width="200" height="160" as="geometry" />
        </mxCell>
        <mxCell id="dEM4wBrxNQ7cr_cTuQZF-12" value="NextJS" style="rounded=1;whiteSpace=wrap;html=1;" vertex="1" parent="1">
          <mxGeometry x="-110" y="200" width="200" height="160" as="geometry" />
        </mxCell>
        <mxCell id="dEM4wBrxNQ7cr_cTuQZF-13" style="edgeStyle=orthogonalEdgeStyle;rounded=0;orthogonalLoop=1;jettySize=auto;html=1;exitX=0.25;exitY=0;exitDx=0;exitDy=0;entryX=0.383;entryY=-0.025;entryDx=0;entryDy=0;entryPerimeter=0;" edge="1" parent="1" source="dEM4wBrxNQ7cr_cTuQZF-10" target="dEM4wBrxNQ7cr_cTuQZF-10">
          <mxGeometry relative="1" as="geometry" />
        </mxCell>
        <mxCell id="dEM4wBrxNQ7cr_cTuQZF-14" value="Vercel" style="rounded=0;whiteSpace=wrap;html=1;" vertex="1" parent="1">
          <mxGeometry x="-70" y="180" width="80" height="40" as="geometry" />
        </mxCell>
        <mxCell id="dEM4wBrxNQ7cr_cTuQZF-15" value="PosstgreSQL" style="rounded=1;whiteSpace=wrap;html=1;" vertex="1" parent="1">
          <mxGeometry x="790" y="180" width="200" height="160" as="geometry" />
        </mxCell>
        <mxCell id="dEM4wBrxNQ7cr_cTuQZF-16" value="RDS" style="rounded=0;whiteSpace=wrap;html=1;" vertex="1" parent="1">
          <mxGeometry x="830" y="160" width="80" height="40" as="geometry" />
        </mxCell>
        <mxCell id="dEM4wBrxNQ7cr_cTuQZF-20" style="edgeStyle=orthogonalEdgeStyle;rounded=0;orthogonalLoop=1;jettySize=auto;html=1;" edge="1" parent="1" source="dEM4wBrxNQ7cr_cTuQZF-18" target="dEM4wBrxNQ7cr_cTuQZF-15">
          <mxGeometry relative="1" as="geometry" />
        </mxCell>
        <mxCell id="dEM4wBrxNQ7cr_cTuQZF-18" value="ChatGPT" style="rounded=1;whiteSpace=wrap;html=1;" vertex="1" parent="1">
          <mxGeometry x="540" y="550" width="200" height="160" as="geometry" />
        </mxCell>
        <mxCell id="dEM4wBrxNQ7cr_cTuQZF-19" value="Make.com" style="rounded=0;whiteSpace=wrap;html=1;" vertex="1" parent="1">
          <mxGeometry x="580" y="530" width="80" height="40" as="geometry" />
        </mxCell>
        <mxCell id="dEM4wBrxNQ7cr_cTuQZF-21" style="rounded=0;orthogonalLoop=1;jettySize=auto;html=1;entryX=0.004;entryY=0.654;entryDx=0;entryDy=0;entryPerimeter=0;" edge="1" parent="1" source="dEM4wBrxNQ7cr_cTuQZF-2" target="dEM4wBrxNQ7cr_cTuQZF-15">
          <mxGeometry relative="1" as="geometry">
            <Array as="points">
              <mxPoint x="730" y="285" />
            </Array>
          </mxGeometry>
        </mxCell>
        <mxCell id="dEM4wBrxNQ7cr_cTuQZF-24" style="edgeStyle=orthogonalEdgeStyle;rounded=0;orthogonalLoop=1;jettySize=auto;html=1;exitX=0;exitY=0.5;exitDx=0;exitDy=0;entryX=1;entryY=0.425;entryDx=0;entryDy=0;entryPerimeter=0;" edge="1" parent="1" source="dEM4wBrxNQ7cr_cTuQZF-15" target="dEM4wBrxNQ7cr_cTuQZF-2">
          <mxGeometry relative="1" as="geometry" />
        </mxCell>
        <mxCell id="dEM4wBrxNQ7cr_cTuQZF-31" style="edgeStyle=orthogonalEdgeStyle;rounded=0;orthogonalLoop=1;jettySize=auto;html=1;entryX=-0.011;entryY=0.365;entryDx=0;entryDy=0;entryPerimeter=0;" edge="1" parent="1" target="dEM4wBrxNQ7cr_cTuQZF-2">
          <mxGeometry relative="1" as="geometry">
            <mxPoint x="90" y="240" as="sourcePoint" />
            <mxPoint x="160" y="420" as="targetPoint" />
          </mxGeometry>
        </mxCell>
        <mxCell id="dEM4wBrxNQ7cr_cTuQZF-33" style="edgeStyle=orthogonalEdgeStyle;rounded=0;orthogonalLoop=1;jettySize=auto;html=1;entryX=1;entryY=0.425;entryDx=0;entryDy=0;entryPerimeter=0;exitX=0.002;exitY=0.607;exitDx=0;exitDy=0;exitPerimeter=0;" edge="1" parent="1" source="dEM4wBrxNQ7cr_cTuQZF-2">
          <mxGeometry relative="1" as="geometry">
            <mxPoint x="210" y="320" as="sourcePoint" />
            <mxPoint x="90" y="320" as="targetPoint" />
          </mxGeometry>
        </mxCell>
      </root>
    </mxGraphModel>
  </diagram>
</mxfile>
